Coordinates
version=1
nRows=29
nColumns=24
inDegrees=yes

Units are S.I. units (second, meters, Newtons, ...)
Angles are in degrees.

endheader
time	pelvis_tilt	pelvis_list	pelvis_rotation	pelvis_tx	pelvis_ty	pelvis_tz	hip_flexion_r	hip_adduction_r	hip_rotation_r	knee_angle_r	ankle_angle_r	subtalar_angle_r	mtp_angle_r	hip_flexion_l	hip_adduction_l	hip_rotation_l	knee_angle_l	ankle_angle_l	subtalar_angle_l	mtp_angle_l	lumbar_extension	lumbar_bending	lumbar_rotation
      1.02916667	     -4.79050095	     -3.25818186	     -1.59781262	     -0.13444744	      1.01520135	      0.32262909	     -5.27926452	      9.25487684	      1.59418124	    -11.25926786	     13.45127170	     -2.53064248	      2.39122376	     23.68731955	     -3.38097010	     -5.30085515	      6.08042630	      4.03758997	      0.98302054	     -4.31114099	     -1.51278098	      2.11119083	      7.64202485
      1.03333333	     -4.76819459	     -3.16847974	     -1.62072606	     -0.12904206	      1.01448427	      0.32222577	     -5.43424060	      9.12013369	      1.55680187	    -11.67184793	     13.69673643	     -2.39950633	      2.41462399	     23.75608017	     -3.16934747	     -5.19403033	      5.64425231	      4.15654201	      1.16321206	     -4.17715078	     -1.53135908	      2.00657706	      7.67055788
      1.03750000	     -4.76500208	     -3.07098139	     -1.62848044	     -0.12360269	      1.01375479	      0.32182307	     -5.55945263	      8.98709311	      1.54406458	    -12.10035191	     13.89517496	     -2.35787475	      2.43498501	     23.84691473	     -2.94810334	     -5.04419178	      5.14870320	      4.23904123	      1.28213423	     -4.06487782	     -1.53152531	      1.91210458	      7.69741132
      1.04166667	     -4.76106266	     -2.97587717	     -1.64490760	     -0.11818766	      1.01303879	      0.32142194	     -5.63467190	      8.84844088	      1.45179561	    -12.63297774	     14.13169294	     -2.17581631	      2.47801484	     23.96352219	     -2.73708005	     -5.00194320	      4.55208045	      4.29724590	      1.51811449	     -3.82050853	     -1.52862839	      1.81439941	      7.73408544
      1.04583333	     -4.70723952	     -2.87533817	     -1.63909421	     -0.11271359	      1.01241318	      0.32105571	     -5.78701294	      8.72548628	      1.47061112	    -13.11240257	     14.23152836	     -2.28664032	      2.48884945	     23.99831486	     -2.51807230	     -4.82493635	      3.97095153	      4.25808428	      1.53320978	     -3.76795503	     -1.57470577	      1.69234467	      7.75096557
      1.05000000	     -4.65850517	     -2.75291854	     -1.64478634	     -0.10721554	      1.01181045	      0.32066827	     -5.88128571	      8.56095019	      1.37627715	    -13.70926004	     14.47432471	     -2.06603509	      2.57060172	     24.06269561	     -2.28527859	     -4.79816455	      3.29461339	      4.24857746	      1.76024846	     -3.36283766	     -1.61769208	      1.53819234	      7.79170767
      1.05416667	     -4.59897221	     -2.65320476	     -1.62880548	     -0.10170772	      1.01123097	      0.32032424	     -6.01132951	      8.44927529	      1.43005826	    -14.24162408	     14.49779925	     -2.19019505	      2.57873448	     24.09753222	     -2.07449238	     -4.60662206	      2.63429280	      4.11690993	      1.74998827	     -3.32784698	     -1.68545672	      1.40224694	      7.80674290
      1.05833333	     -4.50312132	     -2.50190315	     -1.61887245	     -0.09610994	      1.01072226	      0.31996578	     -6.13490479	      8.26937068	      1.37838463	    -14.87996400	     14.62010288	     -2.21416104	      3.43969506	     24.06663120	     -1.81371418	     -4.46615634	      2.00199687	      3.85499858	      1.69227516	      0.38568065	     -1.75352916	      1.21185869	      7.80881755
      1.06250000	     -4.45388966	     -2.37388813	     -1.60555139	     -0.09052899	      1.01017687	      0.31962378	     -6.19342479	      8.12745238	      1.38619268	    -15.53772502	     14.62788141	     -2.35746811	      3.44697346	     24.10221928	     -1.58226337	     -4.29925967	      1.31083524	      3.66262209	      1.64769881	      0.39569730	     -1.78437662	      1.05951859	      7.83106006
      1.06666667	     -4.38449020	     -2.23744174	     -1.59382754	     -0.08492339	      1.00969328	      0.31928019	     -6.24784275	      7.97554400	      1.38385206	    -16.24787916	     14.62866420	     -2.47197206	      3.46227619	     24.10550105	     -1.34529845	     -4.12916892	      0.62613379	      3.40247803	      1.55700751	      0.41665754	     -1.82786471	      0.88509741	      7.85328405
      1.07083333	     -4.34216713	     -2.10038589	     -1.58696806	     -0.07930590	      1.00918494	      0.31893030	     -6.22497415	      7.81264533	      1.30794722	    -17.05823223	     14.68805794	     -2.38041813	      3.57234800	     24.09733004	     -1.10506159	     -3.76358490	      0.01947121	      2.94138266	      1.07150042	      0.57143407	     -1.83129089	      0.69633516	      7.90018015
      1.07500000	     -4.24042875	     -1.95185627	     -1.57761911	     -0.07365744	      1.00881698	      0.31859608	     -6.26074683	      7.64474793	      1.27908254	    -17.86689656	     14.61869576	     -2.45975738	      3.72359812	     24.02028479	     -0.85809184	     -3.45595231	     -0.58834168	      2.47408842	      0.65565014	      0.77252891	     -1.91701191	      0.50189507	      7.90938805
      1.07916667	     -4.18127687	     -1.78730006	     -1.56625879	     -0.06798226	      1.00841807	      0.31825138	     -6.21869646	      7.45963025	      1.24170535	    -18.73609218	     14.49939827	     -2.54380344	      3.84390580	     23.99440394	     -0.60061502	     -3.19345510	     -1.21519616	      2.01628529	      0.35700607	      0.91102275	     -1.94710257	      0.26921576	      7.92362448
      1.08333333	     -4.03216330	     -1.64492190	     -1.55296794	     -0.06230645	      1.00819512	      0.31788361	     -6.25320950	      7.29151769	      1.17996697	    -19.62850756	     14.27055902	     -2.66791657	      4.82575379	     23.83294815	     -0.35756674	     -2.78526768	     -1.75942421	      1.37771050	     -0.34600670	      1.92512125	     -2.10171451	      0.09393466	      7.89862178
      1.08750000	     -4.04012342	     -1.49368370	     -1.54547664	     -0.05665335	      1.00775405	      0.31748451	     -6.04186553	      7.10263246	      1.03876767	    -20.67923691	     14.16059904	     -2.59760985	      4.98099760	     23.89052292	     -0.12024429	     -2.51999399	     -2.41799104	      0.91146425	     -0.72167523	      2.04286107	     -2.02371836	     -0.08904768	      7.94610665
      1.09166667	     -3.98483629	     -1.33188714	     -1.53978865	     -0.05097382	      1.00745832	      0.31708536	     -5.88111417	      6.89659839	      0.89861715	    -21.74956419	     13.93087714	     -2.57436848	      5.22842187	     23.83379039	      0.13189610	     -2.14215215	     -2.98182686	      0.30836058	     -1.35857746	      2.20096501	     -2.04366000	     -0.29554892	      7.95340072
      1.09583333	     -3.90560832	     -1.14801043	     -1.53871938	     -0.04526777	      1.00726199	      0.31666858	     -5.71309568	      6.65400559	      0.72564853	    -22.87246236	     13.64054157	     -2.51461698	      5.55446451	     23.74163423	      0.40208191	     -1.80718313	     -3.53573262	     -0.27649315	     -1.95825973	      2.37260906	     -2.09501126	     -0.52049546	      7.95745145
      1.10000000	     -3.86727423	     -0.97378658	     -1.54114556	     -0.03957349	      1.00704071	      0.31624795	     -5.46139515	      6.41494592	      0.53729889	    -24.05905303	     13.28355833	     -2.44135824	      5.89824337	     23.70371659	      0.65379707	     -1.51567569	     -4.11632814	     -0.82313088	     -2.48753418	      2.51965048	     -2.08959385	     -0.74489173	      7.95453829
      1.10416667	     -3.77966861	     -0.77741306	     -1.54382800	     -0.03384601	      1.00695414	      0.31581001	     -5.24020542	      6.13894814	      0.32557103	    -25.25979482	     12.68971569	     -2.49251551	      9.88691256	     23.59011701	      0.92772704	     -1.21943946	     -4.65968777	     -1.33470120	     -3.05507448	      3.91787845	     -2.14323629	     -0.98504179	      7.92314808
      1.10833333	     -3.70594523	     -0.57414312	     -1.56432162	     -0.02814491	      1.00688429	      0.31535084	     -4.94442843	      5.82632842	      0.04785024	    -26.58030324	     12.25644233	     -2.22781347	      9.97548015	     23.50196752	      1.19546960	     -1.03883084	     -5.23086077	     -1.79701169	     -3.46580362	      3.90931914	     -2.18830552	     -1.23093438	      7.94745600
      1.11250000	     -3.63627097	     -0.36269141	     -1.58148376	     -0.02243539	      1.00686349	      0.31487477	     -4.61556192	      5.49597282	     -0.23621998	    -27.93494176	     11.70030848	     -2.03030636	     10.14331758	     23.39985778	      1.47387287	     -0.81106420	     -5.77422506	     -2.22647093	     -3.96455533	      3.89808407	     -2.22309557	     -1.48793368	      7.93783613
      1.11666667	     -3.56413732	     -0.14019164	     -1.60674627	     -0.01671852	      1.00690385	      0.31438767	     -4.25373982	      5.13310201	     -0.54868737	    -29.33833372	     11.06528245	     -1.79706036	     10.41696406	     23.28354575	      1.75869512	     -0.60877956	     -6.30604013	     -2.59272658	     -4.44977191	      3.87807917	     -2.25829253	     -1.74028433	      7.92376235
      1.12083333	     -3.47629708	      0.09219746	     -1.64177980	     -0.01099879	      1.00701396	      0.31387540	     -3.87488780	      4.73666411	     -0.88428326	    -30.78465438	     10.33422269	     -1.52998582	     10.89065797	     23.13348088	      2.05105123	     -0.43197304	     -6.81404624	     -2.88350104	     -4.93215962	      3.83781911	     -2.30220857	     -1.98254667	      7.90455687
      1.12500000	     -3.38576464	      0.31749804	     -1.66708065	     -0.00529681	      1.00719322	      0.31338107	     -3.48315693	      4.34507866	     -1.19880853	    -32.21508832	      9.32937885	     -1.41832884	     15.45181790	     22.98374171	      2.32908203	     -0.30698513	     -7.33685306	     -3.08832511	     -5.22244161	      3.38872283	     -2.36983419	     -2.26666208	      7.86973268
      1.12916667	     -3.30021793	      0.56733798	     -1.71241941	      0.00039656	      1.00740046	      0.31288268	     -3.03724541	      3.89666265	     -1.54789705	    -33.73668563	      8.45774826	     -1.09311871	     15.51248152	     22.83088345	      2.62060667	     -0.27863662	     -7.85013079	     -3.22499918	     -5.43238220	      3.37744189	     -2.43330642	     -2.56844226	      7.85376002
      1.13333333	     -3.18823760	      0.81628995	     -1.76145312	      0.00610816	      1.00771265	      0.31238265	     -2.60496178	      3.43641997	     -1.88277582	    -35.25171382	      7.40743229	     -0.84491267	     15.56664959	     22.62245632	      2.90923783	     -0.25916563	     -8.32171079	     -3.26218017	     -5.59781208	      3.36612395	     -2.50630358	     -2.84783745	      7.82872739
      1.13750000	     -3.08776859	      1.05417373	     -1.80653508	      0.01176384	      1.00803777	      0.31186274	     -2.12485681	      2.96989134	     -2.23553554	    -36.80268004	      6.30821762	     -0.56207428	     15.63336913	     22.42086585	      3.18683214	     -0.25805516	     -8.78224942	     -3.26949301	     -5.77370137	      3.35152955	     -2.59082915	     -3.12552049	      7.79705401
      1.14166667	     -3.02978775	      1.32462479	     -1.84404683	      0.01737782	      1.00832986	      0.31130161	     -1.56301033	      2.44997613	     -2.58665258	    -38.40100994	      5.22233231	     -0.17945497	     15.88577347	     22.24851722	      3.50703439	     -0.20089140	     -9.20741514	     -3.34668210	     -6.04294537	      3.29316547	     -2.63438466	     -3.43638404	      7.73053312
      1.14583333	     -2.90219421	      1.57325296	     -1.89669212	      0.02302205	      1.00881014	      0.31075825	     -1.07469221	      1.93580352	     -2.92670397	    -39.93963089	      3.82123786	      0.05127028	     20.30500935	     21.95479054	      3.79999873	     -0.18538888	     -9.55164292	     -3.28122222	     -6.24151323	      2.23939712	     -2.74101803	     -3.69223902	      7.68412209
